inDegrees=no
num_controls=7
num_derivatives=13
num_iterations=97
num_multipliers=7
num_parameters=0
num_slacks=7
num_states=26
objective=0.343585
objective_accelerations=0.017371
objective_balance=0.001178
objective_effort=0.023718
objective_height=0.299788
objective_ligament=0.001529
solver_duration=1030.843812
status=Solve_Succeeded
success=true
DataType=double
version=3
OpenSimVersion=4.5
endheader
time	/jointset/ground_pelvis/pelvis_tilt/value	/jointset/ground_pelvis/pelvis_tx/value	/jointset/ground_pelvis/pelvis_ty/value	/jointset/hip_r/hip_flexion_r/value	/jointset/hip_r/hip_adduction_r/value	/jointset/hip_r/hip_rotation_r/value	/jointset/back/lumbar_extension/value	/jointset/patellofemoral_r/patellar_flexion_r/value	/jointset/knee_r/knee_flexion_r/value	/jointset/knee_r/knee_adduction_r/value	/jointset/knee_r/knee_rotation_r/value	/jointset/ankle_r/ankle_angle_r/value	/jointset/subtalar_r/subtalar_angle_r/value	/jointset/ground_pelvis/pelvis_tilt/speed	/jointset/ground_pelvis/pelvis_tx/speed	/jointset/ground_pelvis/pelvis_ty/speed	/jointset/hip_r/hip_flexion_r/speed	/jointset/hip_r/hip_adduction_r/speed	/jointset/hip_r/hip_rotation_r/speed	/jointset/back/lumbar_extension/speed	/jointset/patellofemoral_r/patellar_flexion_r/speed	/jointset/knee_r/knee_flexion_r/speed	/jointset/knee_r/knee_adduction_r/speed	/jointset/knee_r/knee_rotation_r/speed	/jointset/ankle_r/ankle_angle_r/speed	/jointset/subtalar_r/subtalar_angle_r/speed	/forceset/tau_hip_flexion_r	/forceset/tau_hip_adduction_r	/forceset/tau_hip_rotation_r	/forceset/tau_knee_flexion_r	/forceset/tau_ankle_angle_r	/forceset/tau_subtalar_angle_r	/forceset/tau_lumbar_extension	lambda_cid13_p0	lambda_cid14_p0	lambda_cid14_p1	lambda_cid14_p2	lambda_cid14_p3	lambda_cid14_p4	lambda_cid14_p5	/jointset/ground_pelvis/pelvis_tilt/accel	/jointset/ground_pelvis/pelvis_tx/accel	/jointset/ground_pelvis/pelvis_ty/accel	/jointset/hip_r/hip_flexion_r/accel	/jointset/hip_r/hip_adduction_r/accel	/jointset/hip_r/hip_rotation_r/accel	/jointset/back/lumbar_extension/accel	/jointset/patellofemoral_r/patellar_flexion_r/accel	/jointset/knee_r/knee_flexion_r/accel	/jointset/knee_r/knee_adduction_r/accel	/jointset/knee_r/knee_rotation_r/accel	/jointset/ankle_r/ankle_angle_r/accel	/jointset/subtalar_r/subtalar_angle_r/accel	gamma_cid13_p0	gamma_cid14_p0	gamma_cid14_p1	gamma_cid14_p2	gamma_cid14_p3	gamma_cid14_p4	gamma_cid14_p5
1.5	0.07432072580842219	0.09566447441922721	0.8748750434792831	0.4380743379040454	-0.2307204008439525	-0.1479077035708488	-0.5661728069393662	0.7513693157583388	0.7513693157583364	0.01113266305156913	0.1745316284384633	0.3194491706047366	0.1369460280853798	0.03960038747822073	0.145381989019815	0.2643139051839061	-1.048073108946645	-0.005245019348045723	-0.1439945477066248	0.7918220438000571	-1.431052046643084	-1.431052046643079	0.3846725207045507	3.721788916819302e-05	-0.5217641681362087	-0.218040995229336	-0.05253192518335788	0.008933763378911139	0.02084663355967121	-0.2980555634239325	-0.0305586364321607	-0.01609921013193896	0.1405366262394587	-18.68011053437876	-54.08966536051447	-14.80858142022807	0.8935445456984833	9.192092732114636	-644.8553091024954	56.5379233147214	-0.3064029066759426	0.01400084229796588	-0.2729185755476076	-0.153382650074024	-0.1546946624026123	-0.4769901483550246	0.7855340612682167	-1.180300688702362	-1.180300688702361	0.4028931306570348	-0.04342117892540321	-0.8615817948143573	-0.3504395796788132	5.286467546768112e-08	-6.050268166105163e-08	-1.368929602883688e-06	-1.252616203610117e-06	1.993200683585749e-07	-2.297770567374089e-07	-2.490721477541214e-07
1.51	0.07470128032680573	0.09711877782886437	0.8775039553460667	0.4275875475270356	-0.230780134764291	-0.1493752538572623	-0.5582162979608021	0.7370016789136735	0.7370016789136732	0.01499586414158054	0.174531940868219	0.3141894138005475	0.1347494485842955	0.03650532734579576	0.1454555265869645	0.2614132198250751	-1.049139407034832	-0.00670525506812857	-0.1495146243958291	0.7993692326122942	-1.44226441517108	-1.442264415171079	0.3879353562651369	2.370758375501672e-05	-0.5301083934936542	-0.2212338459055822	-0.04877037460949036	0.007571899936279834	0.0205128049109678	-0.2945215760382223	-0.02912210740780714	-0.01672062065077681	0.13652282316722	-19.35496914094441	-53.49064837977962	-14.84477047818467	0.7521860739606256	9.089956387857761	-642.4779708952362	56.45636705333332	-0.3118331596198259	0.0005948804302784996	-0.3069793938353344	-0.06142368171994256	-0.1425573915930209	-0.5894773311009517	0.7227333961290876	-1.06007926606783	-1.060079266068516	0.2828846641828035	0.01916382490813677	-0.8089608001779901	-0.2979257182530414	5.229088359354538e-08	-5.945079156550519e-08	-1.367153268674831e-06	-1.315891549181687e-06	1.984970047724642e-07	-2.385887600343525e-07	-1.830448240885293e-07
1.52	0.07505072912524625	0.09857312954747437	0.8801021931837051	0.4170944601104383	-0.2308546449147864	-0.1508979970909476	-0.55018763267313	0.7225282435174837	0.7225282435174866	0.018890674766282	0.1745320141511728	0.3088485911639903	0.1325220969951178	0.03337924348960885	0.1453916508143873	0.2581790993548651	-1.049332516864177	-0.008200265379487351	-0.1550331371609463	0.8062533056216366	-1.452211756947861	-1.452211756947865	0.3909944276426584	-1.061147136180303e-05	-0.5379773346098339	-0.2241954128480491	-0.0450088240356232	0.006210036493647959	0.0201789762622707	-0.2909875886525117	-0.02768557838345376	-0.01734203116961573	0.132509020094981	-20.02732574870588	-52.89765032021234	-14.88406379067308	0.6136656757414393	9.01769350209026	-640.1749433925247	56.33766350313973	-0.3126076514283341	-0.01348182564738712	-0.3396055978234037	0.02125500169446224	-0.1616495806577987	-0.476677363537602	0.652910900689246	-0.9272953384593734	-0.9272953384593758	0.3621402940440668	-0.04758292886613504	-0.7665249465611998	-0.3041828329229552	5.170181336301826e-08	-5.850007742020589e-08	-1.365439260910927e-06	-1.385317551326656e-06	1.97728510367378e-07	-2.491740565275553e-07	-1.10918686506168e-07
1.53	0.07536884441288813	0.1000261972833605	0.8826664793447769	0.4066036616845127	-0.2309441657487833	-0.1524761731527913	-0.5420935518807074	0.7079616907308071	0.7079616907308093	0.02281478087790879	0.1745318122759985	0.3034315926418523	0.1302664775348303	0.03024224538522126	0.1452028748465228	0.2546274847130626	-1.048690464019252	-0.009706755891640335	-0.1606049573831846	0.8124465929315972	-1.460881930252941	-1.460881930252941	0.3937928757499071	-2.280452499008396e-05	-0.5453322285080039	-0.2268853894432518	-0.04108745170487553	0.004627058777311184	0.01973500287718931	-0.2878764575070548	-0.02561651082263203	-0.01785173403479235	0.1284255537938105	-20.69700181835237	-52.09578860721385	-14.8341036468188	0.4561534699387303	8.721008123791121	-637.9820510775814	56.435897684397	-0.3144775993643059	-0.02438938227405718	-0.3705902832275983	0.1061823830164327	-0.1459572324082601	-0.5979815499354852	0.5850986564578537	-0.8043579608506468	-0.8043579608502167	0.2333509136158299	0.02269728655863201	-0.7063849442679814	-0.2453364544645823	5.109650987882529e-08	-5.765686272204415e-08	-1.363791474994784e-06	-1.461278626080861e-06	1.970179957171302e-07	-2.616437957917833e-07	-3.231255913723941e-08
1.54	0.07565554337760207	0.1014768144795843	0.885193719182257	0.3961233841784615	-0.2310489131770845	-0.1541101768565311	-0.5339410260131235	0.6933149402842159	0.6933149402842176	0.02676580223951855	0.1745316354263215	0.2979437625141679	0.1279851720322618	0.02709597890402027	0.1449015428819347	0.2507698346365035	-1.047228332889327	-0.01124558424036215	-0.1661986655401645	0.8179423206538935	-1.468251288930755	-1.468251288930753	0.3963774776391779	-5.606371826097691e-06	-0.5521436557190973	-0.2293326213042808	-0.0371660793741276	0.003044081060975216	0.01929102949210494	-0.2847653263615981	-0.02354744326181002	-0.01836143689996754	0.1243420874926401	-21.36361316047745	-51.29960567125339	-14.78859641023976	0.3033028941319615	8.457309508707471	-635.8499925194131	56.48648515534409	-0.3144613267910171	-0.03599302499211315	-0.4008126847747194	0.1852706586946493	-0.1681171479715641	-0.4810549504859108	0.5133989831563914	-0.6671324130063161	-0.6671324130063172	0.3193710504484878	-0.0417046875076838	-0.6578316091458918	-0.2556338860882135	4.46441297142688e-08	-5.943643565475878e-08	-1.281035001971421e-06	-1.52199769103726e-06	1.902829372158145e-07	-2.785983806259954e-07	8.640573448474719e-08
1.55	0.07591063742833022	0.1029237758586967	0.8876808581179325	0.3856621922157843	-0.2311689781913104	-0.1558001377596443	-0.5257369241303547	0.6786012658232801	0.6786012658232786	0.03074120924834633	0.1745315570079818	0.2923906261375107	0.1256809477615997	0.02392728239386054	0.1444640755355727	0.2466109505943139	-1.044862553469288	-0.01275815965209432	-0.1718219516189937	0.8227543116323498	-1.474253666447785	-1.474253666447785	0.3986301163260326	1.14823445570827e-05	-0.5583905835356396	-0.2314531220260158	-0.03350619824533364	0.00194358575589313	0.01868701839839659	-0.2811046287916047	-0.02218917292386923	-0.01884145608361452	0.1204409187984083	-22.0213151399955	-50.73666312413518	-14.76484652959247	0.1468496816002408	8.38600515373585	-633.7848293105062	56.41399328412316	-0.3174019997797577	-0.0515883984859297	-0.4305391516286313	0.2843542164000861	-0.1418095955869889	-0.6073781533398449	0.4465375150597694	-0.5323047252737249	-0.5323047252739368	0.1669177255062993	0.0263387575768054	-0.5941145995876747	-0.1817406587316624	3.145490033103294e-08	-6.423791607522211e-08	-1.104827215541918e-06	-1.565155309922273e-06	1.766065564513121e-07	-3.007202875299716e-07	2.513402196591676e-07
1.56	0.0761341788766265	0.1043655696025399	0.8901249856356486	0.3752290825738558	-0.2313039653312161	-0.1575472140668974	-0.5174884146658273	0.6638344647263296	0.663834464726325	0.03473688413358359	0.1745322340980774	0.286777822236352	0.1233572219850172	0.02078545841764843	0.1438680158281027	0.242167551044622	-1.041611868739586	-0.01423000937634489	-0.1776217463681595	0.8268238370055871	-1.478876616133709	-1.47887661613371	0.4004310529209807	0.0001454953155597888	-0.5640771606193526	-0.2332329224883713	-0.02984631711653913	0.0008430904508125866	0.01808300730468009	-0.2774439312216115	-0.02083090258592792	-0.01932147526725885	0.1165397501041767	-22.66625022918658	-50.18176889716911	-14.74671000853562	-0.003905213972268895	8.350314268157732	-631.8154553578698	56.29212004827718	-0.3090868200014935	-0.06771149721370229	-0.4577157862751675	0.3622517206273035	-0.1599720104752403	-0.5163566845532361	0.3649058621126126	-0.3912468467848835	-0.3912468467848833	0.229030632067188	-0.018319836583783	-0.5457614625800252	-0.1874938342123076	2.689401960264674e-08	-4.214727134687945e-08	-7.964496795001209e-07	-1.020915044543433e-06	1.255771943938009e-07	-1.953964290962522e-07	1.258994870428506e-07
1.57	0.07632653717139572	0.1058007036391739	0.8925233398164186	0.3648323670168147	-0.2314546063970227	-0.1593484851006132	-0.5092030447190808	0.6490283577208298	0.6490283577208268	0.03875334150798081	0.1745326378134667	0.2811106443718873	0.1210154127547626	0.01768028295426342	0.1431399097624644	0.2374610288102364	-1.037580530711298	-0.01587620417672377	-0.1826940535718809	0.8301333153735994	-1.482114356153126	-1.482114356153127	0.4027359500329496	-3.592889274571522e-05	-0.5692483628723428	-0.235045335092679	-0.02587152499157934	-0.0005110206225431509	0.01742573755181691	-0.274579984260558	-0.01829115767618692	-0.0198169783943673	0.112493935632916	-23.29591810281267	-49.25584129504185	-14.68706458179481	-0.1421667645427095	7.958258803794657	-630.0312039099606	56.31994888612764	-0.3121211821169971	-0.07819810302213343	-0.4834145672976804	0.4461846722965531	-0.1634712038002198	-0.5117776771435998	0.2964432786295745	-0.255480598029299	-0.2554805980292618	0.2125950958206019	-0.01355379415270327	-0.4863016017149746	-0.1654655241122648	3.31185746928225e-08	1.355852981747037e-08	-3.22859956442956e-07	2.575725761652152e-07	2.785660572002886e-08	6.923463600958495e-08	-3.625102678118846e-07
1.58	0.076487666057009	0.1072279890267948	0.8948733699497894	0.3544804868057298	-0.2316210150086295	-0.1612023011941386	-0.5008880850977575	0.6341967847114334	0.634196784711433	0.04278912302250922	0.1745321272705392	0.2753950540858813	0.1186580092883505	0.01453957658647882	0.1422982860254963	0.2325027415647537	-1.032644799548331	-0.01738351853634286	-0.1881307583300829	0.8327417719209732	-1.483969816912908	-1.483969816912908	0.404295880947273	-3.735634900198302e-05	-0.5737596449275915	-0.2363517697198774	-0.02189673286661959	-0.001865131695898855	0.01676846779895956	-0.2717160372995043	-0.01575141276644577	-0.02031248152147528	0.1084481211616551	-23.90782902484635	-48.33553217981805	-14.62761268835318	-0.2813001304687661	7.573943999777353	-628.3142400076016	56.40406531236887	-0.3161930008814162	-0.09041503147964794	-0.5080687884945627	0.5431303475629931	-0.1321959223232837	-0.5892361954493618	0.2247014979849128	-0.114790994857576	-0.114790994857576	0.08003739253807977	0.01767951382606501	-0.4137774230317079	-0.08629823879044678	4.676153160688537e-08	5.716470687818404e-08	-7.377473794575105e-08	1.226081770756671e-06	-3.508319160468784e-08	2.712043085740563e-07	-8.118120332006051e-07
